<svg width="200" height="40" viewBox="0 0 200 40" fill="none" xmlns="http://www.w3.org/2000/svg">
<g filter="url(#filter0_d)">
<path fill-rule="evenodd" clip-rule="evenodd" d="M6.69445 26.3237C8.18349 26.3237 9.38891 25.1175 9.38891 23.6275V2.69623C9.38891 1.20621 8.18349 0 6.69445 0C5.20541 0 4 1.20621 4 2.69623V23.6275C4 25.1175 5.20541 26.3237 6.69445 26.3237ZM22.2002 26.5366C28.1209 26.5366 32.5171 22.102 32.5171 16.6386V16.5676C32.5171 11.1042 28.1564 6.74058 22.2711 6.74058C16.3504 6.74058 11.9542 11.1752 11.9542 16.6386V16.7095C11.9542 22.1729 16.315 26.5366 22.2002 26.5366ZM17.2722 16.6386C17.2722 19.4412 19.293 21.8891 22.2711 21.8891C25.3556 21.8891 27.1991 19.5122 27.1991 16.7095V16.6386C27.1991 13.8359 25.1783 11.388 22.2002 11.388C19.1158 11.388 17.2722 13.765 17.2722 16.5676V16.6386ZM44.1585 26.5366C50.0792 26.5366 54.4754 22.102 54.4754 16.6386V16.5676C54.4754 11.1042 50.1146 6.74058 44.2294 6.74058C38.3087 6.74058 33.9125 11.1752 33.9125 16.6386V16.7095C33.9125 22.1729 38.2732 26.5366 44.1585 26.5366ZM39.2305 16.6386C39.2305 19.4412 41.2513 21.8891 44.2294 21.8891C47.3138 21.8891 49.1574 19.5122 49.1574 16.7095V16.6386C49.1574 13.8359 47.1366 11.388 44.1585 11.388C41.074 11.388 39.2305 13.765 39.2305 16.5676V16.6386ZM59.487 32C60.976 32 62.1814 30.7938 62.1814 29.3038V23.6275C63.4578 25.153 65.2304 26.4656 68.1021 26.4656C72.6047 26.4656 76.7527 22.9889 76.7527 16.6386V16.5676C76.7527 10.2173 72.5338 6.74058 68.1021 6.74058C65.3013 6.74058 63.4932 8.05322 62.1814 9.82705V9.57871C62.1814 8.08869 60.976 6.88248 59.487 6.88248C57.9979 6.88248 56.7925 8.08869 56.7925 9.57871V29.3038C56.7925 30.7938 57.9979 32 59.487 32ZM62.1105 16.6386C62.1105 19.796 64.2023 21.8891 66.7195 21.8891C69.2366 21.8891 71.3638 19.8315 71.3638 16.6386V16.5676C71.3638 13.4102 69.2366 11.3171 66.7195 11.3171C64.2023 11.3171 62.1105 13.4102 62.1105 16.5676V16.6386ZM85.806 26.4656C89.9186 26.4656 93.0739 24.5499 93.0739 20.3282V20.2572C93.0739 16.7805 89.9895 15.5033 87.3305 14.6164C87.1283 14.5466 86.9284 14.4789 86.7325 14.4125C84.936 13.8037 83.4661 13.3055 83.4661 12.3459V12.2749C83.4661 11.5299 84.1397 10.9623 85.4515 10.9623C86.586 10.9623 88.0396 11.4235 89.5641 12.1685C89.9186 12.3459 90.1668 12.4169 90.5568 12.4169C91.7622 12.4169 92.7194 11.4945 92.7194 10.2882C92.7194 9.36585 92.2231 8.65632 91.4431 8.26608C89.5995 7.34368 87.5432 6.81153 85.5578 6.81153C81.7289 6.81153 78.609 8.97561 78.609 12.8426V12.9135C78.609 16.6031 81.6225 17.8448 84.2815 18.6253C84.5255 18.6998 84.7661 18.7709 85.0008 18.8402C86.7782 19.3655 88.2168 19.7907 88.2168 20.8248V20.8958C88.2168 21.7472 87.5078 22.3149 85.9478 22.3149C84.4233 22.3149 82.6152 21.7472 80.8071 20.612C80.5235 20.4346 80.1335 20.3282 79.7435 20.3282C78.5381 20.3282 77.6163 21.2506 77.6163 22.4568C77.6163 23.3082 78.0772 23.9468 78.6444 24.3016C80.9489 25.7916 83.4661 26.4656 85.806 26.4656ZM104.503 25.898C103.51 26.2882 102.588 26.4302 101.418 26.4302C98.121 26.4302 95.8874 25.1175 95.8874 20.7184V11.7073H95.7102C94.4338 11.7073 93.4057 10.6785 93.4057 9.40133C93.4057 8.12417 94.4338 7.09534 95.7102 7.09534H95.8874V4.7184C95.8874 3.22838 97.0928 2.02217 98.5819 2.02217C100.071 2.02217 101.276 3.22838 101.276 4.7184V7.09534H103.652C104.928 7.09534 105.956 8.12417 105.956 9.40133C105.956 10.6785 104.928 11.7073 103.652 11.7073H101.276V19.8315C101.276 21.0732 101.808 21.6763 103.014 21.6763C103.113 21.6763 103.27 21.665 103.406 21.6552L103.406 21.6552C103.512 21.6476 103.605 21.6408 103.652 21.6408C104.857 21.6408 105.885 22.6341 105.885 23.8758C105.885 24.8337 105.247 25.6142 104.503 25.898ZM114.442 26.4656C117.172 26.4656 118.767 25.0111 120.008 23.4146V23.6275C120.008 25.1175 121.214 26.3237 122.703 26.3237C124.192 26.3237 125.397 25.1175 125.397 23.6275V9.57871C125.397 8.08869 124.192 6.88248 122.703 6.88248C121.214 6.88248 120.008 8.08869 120.008 9.57871V17.7029C120.008 20.2572 118.697 21.5698 116.64 21.5698C114.584 21.5698 113.379 20.2572 113.379 17.7029V9.57871C113.379 8.08869 112.173 6.88248 110.684 6.88248C109.195 6.88248 107.99 8.08869 107.99 9.57871V19.4058C107.99 23.7694 110.365 26.4656 114.442 26.4656ZM142.357 23.3792C141.045 25.153 139.237 26.4656 136.436 26.4656C132.004 26.4656 127.785 22.9889 127.785 16.6386V16.5676C127.785 10.2173 131.933 6.74058 136.436 6.74058C139.308 6.74058 141.08 8.05322 142.357 9.57871V2.69623C142.357 1.20621 143.562 0 145.051 0C146.54 0 147.745 1.20621 147.745 2.69623V23.6275C147.745 25.1175 146.54 26.3237 145.051 26.3237C143.562 26.3237 142.357 25.1175 142.357 23.6275V23.3792ZM137.819 21.8891C135.301 21.8891 133.174 19.796 133.174 16.6386V16.5676C133.174 13.3747 135.301 11.3171 137.819 11.3171C140.336 11.3171 142.427 13.4102 142.427 16.5676V16.6386C142.427 19.796 140.336 21.8891 137.819 21.8891ZM156.941 2.62528C156.941 4.18625 155.629 5.1796 153.927 5.1796C152.225 5.1796 150.913 4.18625 150.913 2.62528V2.55432C150.913 0.993348 152.225 0.0354767 153.927 0.0354767C155.629 0.0354767 156.941 0.993348 156.941 2.55432V2.62528ZM153.927 26.3237C155.416 26.3237 156.621 25.1175 156.621 23.6275V9.57871C156.621 8.08869 155.416 6.88248 153.927 6.88248C152.438 6.88248 151.233 8.08869 151.233 9.57871V23.6275C151.233 25.1175 152.438 26.3237 153.927 26.3237ZM179.75 16.6386C179.75 22.102 175.354 26.5366 169.433 26.5366C163.548 26.5366 159.187 22.1729 159.187 16.7095V16.6386C159.187 11.1752 163.583 6.74058 169.504 6.74058C175.389 6.74058 179.75 11.1042 179.75 16.5676V16.6386ZM169.504 21.8891C166.526 21.8891 164.505 19.4412 164.505 16.6386V16.5676C164.505 13.765 166.348 11.388 169.433 11.388C172.411 11.388 174.432 13.8359 174.432 16.6386V16.7095C174.432 19.5122 172.588 21.8891 169.504 21.8891ZM196 20.3282C196 24.5499 192.845 26.4656 188.732 26.4656C186.392 26.4656 183.875 25.7916 181.571 24.3016C181.003 23.9468 180.542 23.3082 180.542 22.4568C180.542 21.2506 181.464 20.3282 182.67 20.3282C183.06 20.3282 183.45 20.4346 183.733 20.612C185.541 21.7472 187.349 22.3149 188.874 22.3149C190.434 22.3149 191.143 21.7472 191.143 20.8958V20.8248C191.143 19.7907 189.704 19.3655 187.927 18.8402C187.692 18.7709 187.452 18.6998 187.208 18.6253C184.549 17.8448 181.535 16.6031 181.535 12.9135V12.8426C181.535 8.97561 184.655 6.81153 188.484 6.81153C190.469 6.81153 192.526 7.34368 194.369 8.26608C195.149 8.65632 195.645 9.36585 195.645 10.2882C195.645 11.4945 194.688 12.4169 193.483 12.4169C193.093 12.4169 192.845 12.3459 192.49 12.1685C190.966 11.4235 189.512 10.9623 188.378 10.9623C187.066 10.9623 186.392 11.5299 186.392 12.2749V12.3459C186.392 13.3055 187.862 13.8037 189.659 14.4125C189.854 14.4789 190.054 14.5466 190.257 14.6164C192.916 15.5033 196 16.7805 196 20.2572V20.3282Z" fill="white"/>
</g>
<defs>
<filter id="filter0_d" x="0" y="0" width="200" height="40" filterUnits="userSpaceOnUse" color-interpolation-filters="sRGB">
<feFlood flood-opacity="0" result="BackgroundImageFix"/>
<feColorMatrix in="SourceAlpha" type="matrix" values="0 0 0 0 0 0 0 0 0 0 0 0 0 0 0 0 0 0 127 0"/>
<feOffset dy="4"/>
<feGaussianBlur stdDeviation="2"/>
<feColorMatrix type="matrix" values="0 0 0 0 0 0 0 0 0 0 0 0 0 0 0 0 0 0 0.25 0"/>
<feBlend mode="normal" in2="BackgroundImageFix" result="effect1_dropShadow"/>
<feBlend mode="normal" in="SourceGraphic" in2="effect1_dropShadow" result="shape"/>
</filter>
</defs>
</svg>
